<?xml version="1.0" standalone="no"?>
<!DOCTYPE svg PUBLIC "-//W3C//DTD SVG 20010904//EN"
 "http://www.w3.org/TR/2001/REC-SVG-20010904/DTD/svg10.dtd">
<svg version="1.0" xmlns="http://www.w3.org/2000/svg"
 width="2400.000000pt" height="2400.000000pt" viewBox="0 0 2400.000000 2400.000000"
 preserveAspectRatio="xMidYMid meet">
<metadata>
Created by potrace 1.14, written by Peter Selinger 2001-2017
</metadata>
<g transform="translate(0.000000,2400.000000) scale(0.100000,-0.100000)"
fill="#000000" stroke="none">
<path d="M12025 23269 c-234 -23 -303 -33 -440 -60 -745 -150 -1392 -494
-1920 -1023 -129 -129 -150 -152 -251 -271 -348 -412 -623 -957 -753 -1495
-77 -321 -104 -548 -104 -900 0 -312 14 -456 69 -735 84 -425 235 -818 461
-1196 309 -518 772 -983 1278 -1284 175 -105 391 -215 522 -266 236 -93 496
-170 703 -208 36 -7 85 -16 110 -21 49 -10 177 -25 338 -40 317 -31 805 8
1142 91 582 143 1118 414 1560 790 194 165 441 426 576 609 78 105 119 165
150 215 17 27 53 86 80 130 201 324 372 769 453 1180 56 285 66 397 66 735 0
321 -9 430 -57 690 -79 434 -257 901 -481 1260 -87 141 -114 180 -208 305
-137 183 -235 292 -424 475 -327 316 -760 593 -1185 759 -74 29 -144 57 -155
61 -47 20 -294 93 -375 110 -56 12 -191 39 -245 49 -55 10 -184 26 -343 41
-119 12 -451 11 -567 -1z"/>
<path d="M6850 21769 c-321 -23 -640 -95 -925 -209 -109 -43 -295 -134 -373
-181 -35 -21 -66 -39 -68 -39 -17 0 -261 -175 -374 -269 -77 -64 -317 -302
-365 -363 -22 -28 -48 -60 -59 -72 -10 -11 -50 -66 -89 -120 -260 -365 -436
-784 -512 -1211 -65 -366 -59 -793 15 -1140 5 -27 13 -63 16 -80 23 -117 112
-380 181 -531 269 -599 701 -1072 1278 -1402 258 -147 593 -271 865 -321 36
-7 83 -16 105 -21 124 -27 246 -35 515 -34 327 1 462 17 723 84 392 100 755
274 1071 513 60 45 114 89 119 99 9 13 -8 39 -89 135 -270 318 -454 599 -630
958 -108 221 -230 532 -275 700 -4 17 -17 66 -29 110 -142 529 -185 1121 -120
1655 32 262 62 414 149 745 23 86 126 375 161 452 11 24 20 45 20 48 0 4 43
100 87 192 8 18 13 39 10 46 -13 34 -432 170 -642 208 -136 25 -167 29 -335
43 -189 17 -253 18 -430 5z"/>
<path d="M17375 21769 c-319 -24 -670 -104 -900 -204 -16 -7 -49 -21 -72 -30
-24 -10 -43 -20 -43 -24 0 -4 9 -25 19 -47 34 -70 81 -174 81 -179 0 -3 9 -24
19 -48 134 -299 252 -735 306 -1127 46 -335 46 -845 0 -1180 -83 -601 -281
-1168 -593 -1697 -126 -213 -319 -479 -485 -666 -38 -42 -67 -83 -64 -90 9
-25 300 -234 414 -298 376 -213 731 -333 1153 -391 126 -17 615 -17 730 0 162
24 358 62 420 82 14 4 45 13 70 20 79 22 267 92 380 142 463 206 896 556 1196
968 274 375 456 800 535 1250 53 305 53 746 0 1040 -23 125 -27 146 -75 323
-92 341 -286 714 -528 1019 -446 562 -1065 942 -1763 1082 -284 57 -546 75
-800 55z"/>
<path d="M11995 15004 c-243 -6 -607 -30 -940 -60 -313 -29 -351 -33 -440 -44
-49 -6 -126 -15 -170 -20 -118 -13 -311 -38 -380 -49 -33 -6 -98 -15 -145 -21
-76 -11 -208 -30 -400 -61 -65 -10 -130 -21 -237 -39 -32 -5 -139 -23 -238
-40 -99 -17 -200 -35 -225 -40 -25 -4 -72 -13 -105 -19 -33 -6 -105 -20 -160
-30 -128 -26 -259 -51 -310 -61 -82 -15 -352 -71 -410 -84 -33 -8 -87 -20
-120 -26 -57 -12 -159 -35 -292 -66 -35 -8 -93 -21 -130 -29 -136 -32 -228
-56 -235 -63 -8 -8 0 -89 42 -407 11 -84 26 -209 40 -322 17 -140 29 -235 40
-318 6 -44 14 -116 20 -160 5 -44 16 -134 24 -200 9 -66 20 -160 26 -210 6
-49 15 -117 20 -150 5 -33 14 -105 20 -160 6 -55 15 -129 20 -165 5 -36 14
-105 20 -155 14 -122 29 -236 40 -320 5 -38 14 -110 20 -160 6 -49 15 -125 20
-167 6 -43 15 -114 20 -158 6 -44 15 -117 20 -162 6 -46 15 -114 20 -153 5
-38 14 -110 20 -160 13 -111 28 -227 40 -320 5 -38 14 -110 20 -160 6 -49 15
-121 20 -160 5 -38 14 -110 20 -160 21 -173 31 -261 40 -320 5 -33 14 -105 20
-160 6 -55 15 -127 20 -160 5 -33 14 -103 20 -155 15 -131 29 -242 40 -325 9
-67 13 -103 40 -330 7 -55 18 -131 24 -169 l12 -70 1124 -750 1125 -751 5
-2634 5 -2633 125 -76 c163 -98 487 -263 645 -328 22 -9 54 -22 70 -29 261
-114 700 -242 965 -280 141 -20 332 -35 451 -35 127 0 172 4 389 31 133 16
308 54 505 109 134 37 369 119 500 175 199 84 450 205 601 289 124 68 239 139
246 150 4 6 8 1193 8 2638 l0 2628 1124 749 c618 413 1127 758 1130 768 3 10
10 59 16 108 6 50 15 122 20 160 5 39 13 108 19 155 16 129 48 384 61 485 11
84 26 209 40 323 5 45 15 118 20 162 6 44 15 117 20 163 6 45 15 114 20 152
11 84 26 209 40 323 33 272 60 483 70 557 5 39 14 111 20 160 13 111 28 227
40 320 5 39 14 111 20 160 6 50 15 125 20 168 6 42 15 113 20 157 6 44 15 117
20 163 6 45 15 114 20 152 5 39 14 111 20 160 6 50 15 125 20 168 6 42 15 113
20 157 6 44 15 117 20 163 6 45 15 114 20 152 5 39 14 111 20 160 13 111 28
227 40 320 5 39 14 111 20 160 6 50 15 122 20 160 5 39 14 113 20 165 6 52 15
122 20 155 5 33 12 94 15 136 l7 76 -48 12 c-27 7 -67 16 -89 21 -22 5 -80 18
-130 30 -49 12 -108 25 -130 30 -22 5 -69 16 -105 24 -36 9 -87 20 -115 26
-27 5 -93 19 -145 30 -52 11 -174 36 -270 55 -96 19 -193 39 -215 45 -38 9
-250 50 -362 71 -29 5 -77 13 -105 19 -29 5 -107 19 -173 30 -66 11 -145 25
-175 31 -53 10 -93 17 -230 39 -121 20 -175 29 -250 40 -41 6 -102 16 -135 21
-33 5 -94 14 -135 20 -41 6 -102 14 -135 19 -94 13 -281 38 -375 50 -47 6
-116 15 -155 20 -38 5 -119 14 -180 20 -60 6 -150 15 -200 20 -178 19 -443 40
-760 60 -171 10 -761 19 -960 14z"/>
<path d="M6155 14989 c-49 -4 -146 -13 -215 -19 -188 -16 -530 -57 -660 -79
-30 -6 -86 -15 -125 -21 -139 -21 -398 -66 -465 -79 -25 -5 -70 -14 -100 -20
-610 -121 -1161 -254 -1695 -408 -66 -19 -133 -39 -150 -43 -16 -5 -61 -18
-100 -30 -38 -12 -78 -24 -89 -27 -16 -5 -18 -13 -12 -57 15 -122 71 -515 85
-601 6 -33 15 -98 21 -145 6 -47 15 -113 20 -147 6 -35 14 -91 20 -125 5 -35
14 -101 20 -148 6 -47 15 -110 20 -140 5 -30 14 -93 20 -140 6 -47 15 -113 20
-147 6 -35 14 -91 20 -125 5 -35 14 -101 20 -148 6 -47 15 -112 20 -145 6 -33
19 -125 30 -205 11 -80 24 -172 29 -205 6 -33 15 -98 21 -145 6 -47 15 -112
20 -145 6 -33 19 -125 30 -205 11 -80 24 -172 29 -205 6 -33 15 -98 21 -145 6
-47 15 -112 20 -145 6 -33 19 -125 30 -205 11 -80 24 -174 30 -210 5 -36 14
-101 20 -145 11 -76 17 -119 40 -267 5 -35 14 -101 20 -148 6 -47 15 -112 20
-145 6 -33 19 -125 30 -205 11 -80 24 -174 30 -210 6 -36 17 -109 24 -164 l14
-98 751 -752 751 -751 0 -2256 0 -2256 22 -20 c38 -34 241 -166 378 -246 159
-92 477 -253 540 -272 14 -4 48 -18 75 -30 61 -28 268 -98 350 -119 239 -60
471 -84 647 -67 254 26 508 91 733 186 17 7 71 30 120 51 173 73 357 168 582
302 81 48 297 194 305 206 4 6 8 968 8 2138 l0 2128 -750 500 c-413 275 -752
506 -754 513 -2 7 -9 68 -15 137 -7 69 -16 157 -21 195 -5 39 -13 113 -19 165
-6 52 -15 140 -21 195 -6 55 -15 134 -20 175 -5 41 -14 122 -20 180 -6 58 -15
143 -21 190 -17 150 -28 253 -39 355 -6 55 -15 134 -20 175 -5 41 -14 122 -20
180 -15 144 -29 271 -40 360 -5 41 -14 122 -20 180 -6 58 -15 139 -20 180 -5
41 -14 122 -20 180 -15 144 -29 271 -40 360 -5 41 -14 122 -20 180 -6 58 -15
141 -20 185 -5 44 -14 125 -20 180 -6 55 -15 138 -21 185 -19 173 -29 258 -39
355 -6 55 -15 138 -21 185 -19 173 -29 258 -39 355 -6 55 -15 136 -20 180 -5
44 -14 125 -20 180 -6 55 -15 138 -21 185 -19 173 -29 258 -39 355 -6 55 -15
136 -20 180 -5 44 -14 125 -20 180 -6 55 -15 136 -20 180 -5 44 -14 125 -20
180 -6 55 -17 143 -23 195 -14 110 -2 103 -152 89z"/>
<path d="M18316 14893 c-2 -10 -7 -47 -11 -83 -3 -36 -10 -101 -15 -145 -5
-44 -14 -125 -20 -180 -6 -55 -15 -138 -21 -185 -19 -173 -29 -258 -39 -355
-6 -55 -15 -138 -21 -185 -19 -173 -29 -258 -39 -355 -6 -55 -15 -136 -20
-180 -5 -44 -14 -125 -20 -180 -6 -55 -15 -138 -21 -185 -19 -173 -29 -258
-39 -355 -6 -55 -15 -136 -20 -180 -5 -44 -14 -125 -20 -180 -6 -55 -15 -136
-20 -180 -10 -86 -25 -226 -41 -370 -11 -102 -24 -220 -38 -345 -6 -47 -15
-130 -21 -185 -6 -55 -15 -136 -20 -180 -5 -44 -14 -125 -20 -180 -6 -55 -15
-138 -21 -185 -19 -173 -29 -258 -39 -355 -6 -55 -15 -136 -20 -180 -5 -44
-14 -125 -20 -180 -6 -55 -15 -136 -20 -180 -10 -86 -25 -226 -41 -370 -11
-102 -24 -220 -38 -345 -6 -47 -15 -130 -21 -185 -6 -55 -15 -134 -20 -175 -5
-41 -14 -128 -21 -192 l-13 -117 -1128 -752 -1128 -752 0 -1877 0 -1877 23
-20 c46 -42 271 -187 452 -290 121 -70 454 -233 474 -233 4 0 25 -8 47 -19
110 -52 393 -136 559 -166 287 -50 484 -42 800 34 324 77 719 252 1110 491
102 63 247 160 273 183 l22 20 0 2252 0 2252 98 80 c184 152 547 448 652 533
58 46 107 87 110 90 3 3 41 35 85 70 44 35 116 94 160 130 44 36 179 147 300
245 121 99 230 189 242 201 16 16 23 38 27 90 4 38 11 105 16 149 5 44 14 125
20 180 6 55 15 134 20 175 5 41 14 122 20 180 6 58 15 139 20 180 9 70 15 125
41 365 11 102 24 220 38 345 6 47 15 130 21 185 6 55 15 136 20 180 5 44 14
125 20 180 6 55 15 134 20 175 5 41 14 122 20 180 15 144 29 271 40 360 5 41
14 122 20 180 6 58 15 139 20 180 11 89 25 216 40 360 6 58 15 139 20 180 5
41 14 122 20 180 6 58 15 139 20 180 5 41 14 120 20 175 6 55 15 136 20 180 5
44 14 125 20 180 6 55 15 134 20 175 5 41 14 127 20 190 7 63 15 136 20 162 4
26 4 52 0 58 -7 11 -268 102 -520 180 -74 23 -146 45 -160 50 -89 31 -423 127
-625 180 -38 10 -104 28 -145 39 -41 12 -122 32 -180 46 -58 14 -121 29 -140
34 -72 20 -406 96 -485 111 -22 4 -87 17 -145 29 -178 37 -551 101 -587 101
-12 0 -24 -8 -27 -17z"/>
</g>
</svg>
