<?xml version="1.0" standalone="no"?>
<!DOCTYPE svg PUBLIC "-//W3C//DTD SVG 20010904//EN"
 "http://www.w3.org/TR/2001/REC-SVG-20010904/DTD/svg10.dtd">
<svg version="1.0" xmlns="http://www.w3.org/2000/svg"
 width="282.000000pt" height="87.000000pt" viewBox="0 0 282.000000 87.000000"
 preserveAspectRatio="xMidYMid meet">
<metadata>
Created by potrace 1.14, written by Peter Selinger 2001-2017
</metadata>
<g transform="translate(0.000000,87.000000) scale(0.100000,-0.100000)"
fill="#000000" stroke="none">
<path d="M2660 688 l0 -122 -32 31 c-140 135 -350 -6 -307 -206 35 -162 217
-220 325 -104 l24 26 0 -30 c0 -33 16 -53 42 -53 20 0 26 44 8 55 -6 4 -10
103 -10 266 l0 259 -25 0 -25 0 0 -122z m-84 -97 c66 -30 84 -65 84 -159 0
-90 -14 -117 -74 -146 -71 -34 -144 -10 -193 63 -54 79 -16 208 72 247 41 18
63 17 111 -5z"/>
<path d="M90 515 l0 -285 190 0 190 0 0 25 0 25 -165 0 -165 0 0 260 0 260
-25 0 -25 0 0 -285z"/>
<path d="M609 627 c-84 -45 -130 -167 -99 -262 33 -101 142 -161 242 -135 150
40 205 228 103 348 -65 75 -160 94 -246 49z m144 -31 c43 -17 84 -67 97 -117
37 -137 -110 -261 -220 -186 -52 35 -73 70 -77 129 -6 74 26 135 87 166 51 26
69 27 113 8z"/>
<path d="M1095 636 c-123 -55 -155 -247 -57 -349 39 -42 75 -57 132 -57 55 0
94 15 124 49 11 12 24 21 29 21 15 0 0 -119 -18 -147 -24 -36 -74 -57 -135
-57 -59 1 -90 13 -131 51 -23 21 -27 22 -39 8 -21 -25 46 -81 115 -95 123 -25
233 29 256 126 4 22 9 132 9 247 l0 207 -25 0 c-22 0 -25 -4 -25 -36 l0 -36
-36 32 c-20 17 -47 36 -61 41 -35 13 -103 11 -138 -5z m172 -62 c18 -14 40
-38 48 -54 22 -43 19 -138 -5 -178 -78 -128 -265 -74 -278 81 -6 78 33 149 98
176 36 15 100 4 137 -25z"/>
<path d="M2020 634 c-19 -8 -50 -29 -67 -46 l-33 -32 0 42 c0 35 -3 42 -20 42
-19 0 -20 -7 -20 -205 l0 -205 25 0 25 0 0 140 0 139 38 39 c63 67 148 76 183
18 16 -27 19 -51 19 -183 l0 -153 25 0 25 0 0 160 c0 173 -9 214 -51 244 -29
20 -102 20 -149 0z"/>
<path d="M1700 435 l0 -205 25 0 25 0 0 205 0 205 -25 0 -25 0 0 -205z"/>
</g>
</svg>
