<?xml version="1.0" standalone="no"?>
<!DOCTYPE svg PUBLIC "-//W3C//DTD SVG 20010904//EN"
 "http://www.w3.org/TR/2001/REC-SVG-20010904/DTD/svg10.dtd">
<svg version="1.0" xmlns="http://www.w3.org/2000/svg"
 width="2400.000000pt" height="2400.000000pt" viewBox="0 0 2400.000000 2400.000000"
 preserveAspectRatio="xMidYMid meet">
<metadata>
Created by potrace 1.14, written by Peter Selinger 2001-2017
</metadata>
<g transform="translate(0.000000,2400.000000) scale(0.100000,-0.100000)"
fill="#000000" stroke="none">
<path d="M2851 23402 l-151 -302 53 -30 c28 -16 736 -420 1572 -898 l1520
-869 3 -59 c5 -89 -16 -409 -38 -581 -99 -767 -372 -1408 -830 -1948 -104
-122 -351 -360 -486 -467 -140 -111 -321 -237 -481 -332 l-111 -67 -1544 882
c-849 484 -1557 890 -1575 901 l-32 19 -75 -150 -75 -149 38 -114 c179 -525
437 -1060 716 -1483 864 -1309 2152 -2010 3920 -2135 83 -6 269 -14 415 -19
253 -8 269 -10 350 -37 228 -76 580 -293 981 -605 644 -501 1401 -1194 2494
-2281 l531 -527 1202 1201 1202 1202 -563 566 c-1736 1745 -2784 2945 -3172
3629 -133 234 -165 343 -165 557 0 209 -17 577 -35 784 -83 928 -299 1570
-714 2115 -89 117 -340 372 -461 469 -828 658 -2104 983 -4017 1023 l-321 6
-151 -301z"/>
<path d="M20257 21906 c-818 -573 -1492 -1047 -1498 -1053 -6 -6 -78 -278
-159 -604 l-148 -592 -4354 -4353 -4353 -4352 -599 375 -599 375 -298 -298
-299 -299 0 -56 c0 -93 -19 -256 -46 -389 -121 -604 -514 -1161 -1120 -1586
-531 -372 -1216 -636 -1737 -670 l-105 -7 -2472 -2472 -2473 -2473 7 -113 c49
-810 548 -1682 1321 -2306 546 -441 1140 -695 1708 -729 l113 -7 2476 2477
2475 2477 7 102 c24 352 160 805 363 1212 514 1031 1303 1629 2216 1681 l119
7 299 299 299 298 -376 602 -376 601 4349 4348 4350 4348 598 150 c328 82 603
155 610 163 7 7 482 683 1055 1502 l1042 1489 -448 448 c-247 247 -451 449
-454 448 -3 0 -674 -469 -1493 -1043z"/>
<path d="M13045 11550 l-1199 -1199 720 -723 c880 -884 1410 -1435 1915 -1988
885 -971 1397 -1657 1530 -2050 l32 -95 8 -300 c10 -365 24 -601 50 -845 91
-839 314 -1458 709 -1970 94 -122 326 -353 458 -459 828 -655 2096 -978 4006
-1017 l324 -7 151 301 151 302 -53 30 c-28 16 -736 420 -1572 898 l-1520 869
-3 59 c-5 88 16 408 38 584 97 759 373 1406 830 1945 102 120 350 358 485 466
140 112 324 239 482 333 l111 67 1544 -882 c849 -484 1557 -890 1575 -901 l32
-19 75 150 75 149 -38 114 c-216 636 -540 1265 -891 1733 -188 250 -461 545
-674 728 -747 644 -1691 1022 -2841 1137 -235 23 -536 40 -723 40 -192 0 -297
27 -500 129 -645 324 -1582 1136 -3393 2938 -377 376 -687 683 -690 683 -2 0
-544 -540 -1204 -1200z"/>
</g>
</svg>
